<svg width="28" height="25" viewBox="0 0 28 25" fill="none" xmlns="http://www.w3.org/2000/svg">
<path d="M27.8308 11.7871C25.1946 6.62061 19.9757 3.125 14 3.125C8.02421 3.125 2.80386 6.62305 0.16914 11.7876C0.0579382 12.0085 0 12.2527 0 12.5002C0 12.7478 0.0579382 12.9919 0.16914 13.2129C2.80532 18.3794 8.02421 21.875 14 21.875C19.9757 21.875 25.1961 18.377 27.8308 13.2124C27.942 12.9915 27.9999 12.7473 27.9999 12.4998C27.9999 12.2522 27.942 12.0081 27.8308 11.7871ZM14 19.5312C12.6155 19.5312 11.2621 19.1189 10.111 18.3463C8.95984 17.5737 8.06263 16.4755 7.53282 15.1907C7.003 13.9059 6.86438 12.4922 7.13448 11.1283C7.40457 9.76434 8.07126 8.51149 9.05023 7.52816C10.0292 6.54482 11.2765 5.87516 12.6343 5.60385C13.9922 5.33255 15.3997 5.47179 16.6788 6.00397C17.9578 6.53615 19.0511 7.43736 19.8203 8.59365C20.5894 9.74993 21 11.1094 21 12.5C21.0004 13.4235 20.8197 14.338 20.468 15.1913C20.1164 16.0445 19.6008 16.8198 18.9507 17.4728C18.3006 18.1258 17.5288 18.6437 16.6793 18.9969C15.8298 19.3501 14.9194 19.5317 14 19.5312ZM14 7.8125C13.5834 7.81834 13.1696 7.88059 12.7696 7.99756C13.0993 8.44759 13.2575 9.00141 13.2156 9.55857C13.1736 10.1157 12.9342 10.6393 12.5409 11.0344C12.1476 11.4295 11.6263 11.6699 11.0716 11.7121C10.5169 11.7542 9.96558 11.5953 9.51754 11.2642C9.26242 12.2083 9.30847 13.209 9.64922 14.1255C9.98997 15.042 10.6083 15.828 11.4171 16.373C12.2259 16.918 13.1845 17.1946 14.1579 17.1637C15.1314 17.1328 16.0707 16.796 16.8437 16.2008C17.6166 15.6056 18.1843 14.7819 18.4668 13.8457C18.7492 12.9095 18.7323 11.9078 18.4184 10.9817C18.1044 10.0556 17.5093 9.25178 16.7167 8.68326C15.9241 8.11474 14.9739 7.8102 14 7.8125Z" fill="white"/>
</svg>
