<svg width="30" height="30" viewBox="0 0 30 30" fill="none" xmlns="http://www.w3.org/2000/svg">
<path d="M11.8418 19.2598C11.8418 20.4844 11.2031 22.4883 9.69141 22.4883C8.17969 22.4883 7.54102 20.4844 7.54102 19.2598C7.54102 18.0352 8.17969 16.0312 9.69141 16.0312C11.2031 16.0312 11.8418 18.0352 11.8418 19.2598ZM29.0625 16.3008C29.0625 18.1699 28.875 20.1504 28.0371 21.8672C25.8164 26.3555 19.7109 26.25 15.3398 26.25C10.8984 26.25 4.42969 26.4082 2.12109 21.8672C1.26563 20.168 0.9375 18.1699 0.9375 16.3008C0.9375 13.8457 1.75195 11.5254 3.36914 9.64453C3.06445 8.71875 2.91797 7.74609 2.91797 6.78516C2.91797 5.52539 3.20508 4.89258 3.77344 3.75C6.42773 3.75 8.12695 4.27734 10.1484 5.85937C11.8477 5.45508 13.5937 5.27344 15.3457 5.27344C16.9277 5.27344 18.5215 5.44336 20.0566 5.8125C22.0488 4.24805 23.748 3.75 26.373 3.75C26.9473 4.89258 27.2285 5.52539 27.2285 6.78516C27.2285 7.74609 27.0762 8.70117 26.7773 9.60937C28.3887 11.5078 29.0625 13.8457 29.0625 16.3008ZM25.2949 19.2598C25.2949 16.6875 23.7305 14.4199 20.9883 14.4199C19.8809 14.4199 18.8203 14.6191 17.707 14.7715C16.834 14.9062 15.9609 14.959 15.0645 14.959C14.1738 14.959 13.3008 14.9062 12.4219 14.7715C11.3262 14.6191 10.2539 14.4199 9.14062 14.4199C6.39844 14.4199 4.83398 16.6875 4.83398 19.2598C4.83398 24.4043 9.54492 25.1953 13.6465 25.1953H16.4707C20.5898 25.1953 25.2949 24.4102 25.2949 19.2598ZM20.4551 16.0312C18.9434 16.0312 18.3047 18.0352 18.3047 19.2598C18.3047 20.4844 18.9434 22.4883 20.4551 22.4883C21.9668 22.4883 22.6055 20.4844 22.6055 19.2598C22.6055 18.0352 21.9668 16.0312 20.4551 16.0312Z" fill="white"/>
</svg>
